<?xml version="1.0" standalone="no"?>
<!DOCTYPE svg PUBLIC "-//W3C//DTD SVG 20010904//EN"
 "http://www.w3.org/TR/2001/REC-SVG-20010904/DTD/svg10.dtd">
<svg version="1.0" xmlns="http://www.w3.org/2000/svg"
 width="500.000000pt" height="500.000000pt" viewBox="0 0 500.000000 500.000000"
 preserveAspectRatio="xMidYMid meet">

<g transform="translate(0.000000,500.000000) scale(0.100000,-0.100000)"
fill="#000000" stroke="none">
<path d="M3658 3114 c-117 -28 -229 -108 -243 -174 -8 -38 -18 -43 -88 -50
l-57 -6 -7 39 c-8 50 -39 96 -83 121 -31 18 -52 21 -170 21 -142 0 -150 -2
-403 -87 -44 -15 -62 -56 -54 -123 l4 -43 -51 -7 c-28 -3 -72 -8 -98 -11 -35
-4 -49 -2 -51 8 -30 114 -58 166 -119 216 -64 51 -149 38 -239 -38 -25 -21
-58 -42 -73 -46 -32 -8 -60 -45 -93 -127 -13 -34 -28 -65 -31 -69 -4 -3 -36
-9 -72 -13 l-65 -7 -18 69 c-30 117 -110 213 -177 213 -15 0 -48 -9 -73 -20
-37 -17 -54 -34 -95 -98 -28 -43 -67 -108 -87 -145 -20 -37 -38 -67 -38 -67
-1 -1 -103 -12 -225 -25 -123 -13 -226 -26 -229 -28 -5 -6 53 -576 60 -583 2
-2 64 3 138 11 74 8 139 15 146 15 6 0 19 -21 29 -46 25 -66 67 -95 155 -104
93 -10 175 1 194 26 16 21 45 79 68 135 15 36 15 36 88 43 41 4 92 9 114 12
38 5 41 3 65 -36 65 -108 196 -150 305 -99 45 21 129 104 162 159 9 16 28 31
42 34 55 10 272 28 278 23 3 -4 -21 -18 -53 -31 -33 -14 -70 -32 -84 -40 -49
-28 -61 -134 -18 -157 21 -11 126 5 170 27 15 8 36 14 47 14 11 0 25 9 31 20
6 11 19 20 28 20 10 0 27 7 38 16 10 8 13 13 7 9 -33 -16 -7 7 50 46 34 23 83
59 109 81 l46 38 183 20 c157 17 185 17 191 5 40 -71 101 -105 186 -105 68 0
240 38 290 64 43 22 112 85 112 101 0 15 29 20 214 36 84 8 140 17 142 24 6
13 -51 573 -58 580 -3 3 -65 -2 -139 -10 -164 -18 -160 -18 -153 -2 7 20 -35
129 -58 150 -25 21 -106 22 -190 1z m-2184 -322 c5 -45 6 -85 4 -88 -7 -6
-151 -23 -157 -18 -5 5 69 155 87 177 9 10 25 17 36 15 18 -3 22 -13 30 -86z
m736 38 c26 -26 25 -49 -2 -54 -62 -12 -118 -15 -118 -5 0 21 21 49 48 63 36
20 48 20 72 -4z m1430 -521 c-100 -25 -193 -34 -216 -21 -19 11 -18 11 166 31
117 13 131 10 50 -10z m-1586 -174 c-23 -35 -79 -68 -104 -60 -27 8 -56 63
-38 70 13 4 69 10 126 13 32 2 32 2 16 -23z m-694 -54 c0 -6 -5 -13 -10 -16
-15 -9 -43 3 -35 15 8 13 45 13 45 1z"/>
<path d="M1270 1820 c-41 -41 -13 -111 43 -109 27 2 28 2 7 6 -37 7 -50 22
-50 59 0 35 28 61 56 50 8 -3 14 -1 14 4 0 18 -50 10 -70 -10z"/>
<path d="M1466 1818 c-33 -46 -7 -108 44 -108 32 0 60 31 60 65 0 34 -28 65
-60 65 -18 0 -34 -8 -44 -22z m73 -2 c17 -20 10 -77 -11 -90 -26 -16 -52 4
-56 43 -4 36 12 61 38 61 10 0 23 -6 29 -14z"/>
<path d="M1680 1775 l0 -65 33 0 c42 0 67 26 67 68 0 36 -30 62 -72 62 -28 0
-28 -1 -28 -65z m68 39 c39 -27 19 -94 -29 -94 -16 0 -19 7 -19 55 0 60 9 67
48 39z"/>
<path d="M1900 1775 l0 -65 38 2 c36 1 36 1 5 5 -27 4 -33 9 -33 28 0 18 6 25
28 28 l27 4 -28 2 c-23 1 -28 5 -25 23 2 16 12 25 33 29 29 6 29 7 -7 8 l-38
1 0 -65z"/>
<path d="M2080 1775 c0 -37 4 -65 10 -65 6 0 10 13 10 29 0 25 5 30 28 34 l27
4 -27 2 c-23 1 -28 6 -28 25 0 19 6 26 28 29 22 3 20 4 -10 6 l-38 1 0 -65z"/>
<path d="M2275 1826 c-22 -16 -26 -76 -6 -100 18 -22 64 -20 84 2 52 57 -17
143 -78 98z m70 -20 c21 -32 10 -74 -21 -82 -33 -8 -54 12 -54 52 0 53 48 72
75 30z"/>
<path d="M2491 1773 c1 -38 4 -56 6 -40 5 34 26 35 48 1 9 -14 19 -23 22 -21
3 3 -2 16 -10 28 -14 19 -14 24 -1 44 13 20 13 25 -1 39 -9 9 -27 16 -41 16
-23 0 -24 -2 -23 -67z m43 51 c27 -10 20 -44 -9 -44 -20 0 -25 5 -25 25 0 26
7 29 34 19z"/>
<path d="M2680 1775 c0 -37 4 -65 10 -65 6 0 10 13 10 29 0 25 5 30 28 34 l27
4 -27 2 c-23 1 -28 6 -28 25 0 19 6 26 28 29 22 3 20 4 -10 6 l-38 1 0 -65z"/>
<path d="M2862 1790 c-2 -61 9 -80 44 -80 37 0 54 26 54 81 0 27 -4 49 -10 49
-5 0 -10 -25 -10 -55 0 -42 -4 -57 -16 -62 -30 -11 -49 12 -55 68 l-6 54 -1
-55z"/>
<path d="M3078 1833 c20 -4 22 -11 24 -66 l1 -62 6 59 c5 47 10 61 26 67 13 5
4 7 -30 7 -27 0 -40 -3 -27 -5z"/>
<path d="M3262 1790 c-2 -61 9 -80 44 -80 37 0 54 26 54 81 0 27 -4 49 -10 49
-5 0 -10 -25 -10 -55 0 -42 -4 -57 -16 -62 -30 -11 -49 12 -55 68 l-6 54 -1
-55z"/>
<path d="M3481 1773 c1 -38 4 -56 6 -40 6 35 36 36 52 1 6 -15 14 -24 17 -21
3 3 1 14 -5 26 -8 14 -8 27 1 47 11 23 10 28 -7 40 -10 8 -29 14 -42 14 -22 0
-23 -3 -22 -67z m43 51 c27 -10 20 -44 -9 -44 -18 0 -25 5 -25 18 0 29 9 36
34 26z"/>
<path d="M3670 1775 l0 -65 38 1 c30 2 32 3 10 6 -22 3 -28 10 -28 28 0 18 6
25 28 28 l27 4 -27 2 c-23 1 -28 6 -28 25 0 19 6 26 28 29 22 3 20 4 -10 6
l-38 1 0 -65z"/>
</g>
</svg>
